<svg width="273" height="47" viewBox="0 0 273 47" fill="none" xmlns="http://www.w3.org/2000/svg">
<g filter="url(#filter0_d_407_42)">
<path d="M29.1458 0C21.4691 0.320227 14.778 2.18684 9.28297 7.68797C1.64338 15.336 2.1192 31.2815 11.8235 37.1104C12.6909 37.6314 13.6611 37.9881 14.6528 38.2087C21.5774 39.7493 24.4646 32.5374 25.4504 27.1103C25.7467 25.4783 25.9665 23.839 26.201 22.1969C26.239 21.9299 26.2112 21.0646 26.4897 20.9252C26.7575 20.7911 27.7631 21.9689 27.8754 22.0813C28.7442 22.951 29.5177 23.9543 30.3583 24.8559C31.3428 25.9119 32.3405 26.9559 33.3608 27.9774C35.2358 29.8545 38.4937 32.6041 41.3867 31.4456C44.7416 30.1023 44.6121 25.4231 44.2738 22.5438C44.1237 21.2668 43.8809 19.8383 42.9458 18.9021C42.5597 18.5155 41.7108 18.5872 41.56 19.1911C41.2722 20.3436 40.7612 23.6227 38.7884 22.8328C36.2785 21.8277 34.5332 19.1121 32.8412 17.1101C31.8644 15.9545 30.8433 14.8312 29.8386 13.6996C29.1857 12.9643 28.5632 12.1931 27.76 11.6187C23.4513 8.53767 20.7914 14.6189 19.8495 17.9194C19.6737 18.5353 19.5055 19.2092 19.0313 21.0011C18.5938 22.7694 18.4857 23.8167 18.4059 24.3356C18.2907 25.0855 18.1926 25.8351 18.1172 26.5901C17.9648 28.1152 17.9162 35.3486 14.4218 31.8503C13.1206 30.5475 12.862 27.665 12.8051 26.012C12.7745 25.126 12.7473 24.2396 12.7473 23.3531C12.7473 18.3164 15.7482 11.3075 20.1382 8.6707C22.1179 7.48154 24.6423 7.16782 26.8938 7.16782C29.8945 7.16782 32.6848 8.68905 35.3817 9.769C36.9873 10.412 38.7462 11.6803 40.5783 11.1563C43.6921 10.2656 47.2069 5.40051 43.6964 2.89019C40.3627 0.506386 35.1486 0.226112 29.1458 0Z" fill="white"/>
</g>
<path d="M65.984 30.28C64.0987 30.28 62.3813 29.8413 60.832 28.964C59.2827 28.068 58.06 26.8547 57.164 25.324C56.2867 23.7933 55.848 22.0853 55.848 20.2C55.848 18.3147 56.2867 16.6067 57.164 15.076C58.0413 13.5453 59.2453 12.3413 60.776 11.464C62.3253 10.568 64.0427 10.12 65.928 10.12C68.9147 10.12 71.388 11.1187 73.348 13.116L71.948 14.516C71.164 13.732 70.2867 13.1347 69.316 12.724C68.364 12.3133 67.2533 12.108 65.984 12.108C64.5093 12.108 63.1653 12.4627 61.952 13.172C60.7573 13.8813 59.8147 14.852 59.124 16.084C58.452 17.316 58.116 18.6787 58.116 20.172C58.116 21.7213 58.4613 23.112 59.152 24.344C59.8427 25.576 60.7853 26.5467 61.98 27.256C63.1933 27.9467 64.528 28.292 65.984 28.292C68.3733 28.292 70.38 27.4613 72.004 25.8L73.404 27.172C72.4893 28.1613 71.3973 28.9267 70.128 29.468C68.8587 30.0093 67.4773 30.28 65.984 30.28ZM81.8523 14.6C83.9803 14.6 85.5857 15.1227 86.6683 16.168C87.7697 17.1947 88.3203 18.6693 88.3203 20.592V30H86.2203V27.144C85.735 27.984 84.979 28.7213 83.9523 29.356C82.9443 29.972 81.759 30.28 80.3963 30.28C78.791 30.28 77.5123 29.8507 76.5603 28.992C75.627 28.1333 75.1603 27.0133 75.1603 25.632C75.1603 24.176 75.655 23.0093 76.6443 22.132C77.6337 21.2547 79.1177 20.816 81.0963 20.816C82.5897 20.816 84.2977 20.9187 86.2203 21.124V20.62C86.2203 19.276 85.8283 18.2587 85.0443 17.568C84.279 16.8587 83.1497 16.504 81.6563 16.504C80.8537 16.504 80.0417 16.6533 79.2203 16.952C78.399 17.232 77.6617 17.6427 77.0083 18.184L75.9443 16.644C76.7657 15.9533 77.6897 15.44 78.7163 15.104C79.743 14.768 80.7883 14.6 81.8523 14.6ZM81.0403 28.348C82.011 28.348 82.8883 28.1053 83.6723 27.62C84.475 27.1347 85.1003 26.5093 85.5483 25.744C85.9963 24.96 86.2203 24.1667 86.2203 23.364V22.916C84.8017 22.692 83.2523 22.58 81.5723 22.58C78.6417 22.58 77.1763 23.56 77.1763 25.52C77.1763 26.4347 77.5123 27.1347 78.1843 27.62C78.8563 28.1053 79.8083 28.348 81.0403 28.348ZM99.6065 14.684C100.055 14.684 100.531 14.7307 101.035 14.824L100.951 16.98C100.503 16.8493 100.036 16.784 99.5505 16.784C98.5799 16.784 97.7305 17.064 97.0025 17.624C96.2932 18.184 95.7519 18.9493 95.3785 19.92C95.0052 20.872 94.8185 21.9267 94.8185 23.084V30H92.7465V14.852H94.8185V17.708C95.3225 16.7373 95.9945 15.9907 96.8345 15.468C97.6745 14.9453 98.5985 14.684 99.6065 14.684ZM110.549 30.28C109.019 30.28 107.647 29.944 106.433 29.272C105.239 28.6 104.296 27.6667 103.605 26.472C102.933 25.2773 102.597 23.924 102.597 22.412C102.597 20.9187 102.933 19.584 103.605 18.408C104.296 17.2133 105.248 16.28 106.461 15.608C107.675 14.936 109.037 14.6 110.549 14.6C112.08 14.6 113.452 14.936 114.665 15.608C115.879 16.28 116.821 17.204 117.493 18.38C118.184 19.556 118.529 20.8907 118.529 22.384C118.529 23.896 118.184 25.2493 117.493 26.444C116.821 27.6387 115.879 28.5813 114.665 29.272C113.452 29.944 112.08 30.28 110.549 30.28ZM110.577 28.348C111.697 28.348 112.696 28.096 113.573 27.592C114.469 27.088 115.169 26.388 115.673 25.492C116.177 24.596 116.429 23.5693 116.429 22.412C116.429 21.2547 116.177 20.228 115.673 19.332C115.169 18.436 114.469 17.7453 113.573 17.26C112.677 16.756 111.669 16.504 110.549 16.504C109.429 16.504 108.421 16.756 107.525 17.26C106.648 17.7453 105.957 18.436 105.453 19.332C104.949 20.228 104.697 21.2547 104.697 22.412C104.697 23.5693 104.949 24.596 105.453 25.492C105.957 26.388 106.657 27.088 107.553 27.592C108.449 28.096 109.457 28.348 110.577 28.348ZM124.6 30H122.528V9.336H124.6V30ZM131.541 30H129.469V14.852H131.541V30ZM131.625 12.724H129.413V9.644H131.625V12.724ZM144.118 14.6C145.948 14.6 147.413 15.1787 148.514 16.336C149.616 17.4933 150.166 19.0707 150.166 21.068V30H148.066V21.348C148.066 19.836 147.674 18.66 146.89 17.82C146.125 16.9613 145.042 16.532 143.642 16.532C142.672 16.532 141.776 16.7747 140.954 17.26C140.152 17.7453 139.508 18.4173 139.022 19.276C138.556 20.1347 138.322 21.096 138.322 22.16V30H136.25V14.852H138.322V17.568C138.92 16.672 139.713 15.9533 140.702 15.412C141.71 14.8707 142.849 14.6 144.118 14.6ZM155.858 23.224C155.989 24.7547 156.595 25.996 157.678 26.948C158.779 27.8813 160.151 28.348 161.794 28.348C163.679 28.348 165.173 27.732 166.274 26.5L167.646 27.732C166.899 28.5347 166.022 29.16 165.014 29.608C164.025 30.0373 162.914 30.252 161.682 30.252C160.151 30.252 158.779 29.916 157.566 29.244C156.371 28.572 155.429 27.648 154.738 26.472C154.066 25.2773 153.73 23.924 153.73 22.412C153.73 20.9187 154.047 19.584 154.682 18.408C155.335 17.2133 156.25 16.28 157.426 15.608C158.602 14.936 159.946 14.6 161.458 14.6C162.821 14.6 164.034 14.908 165.098 15.524C166.162 16.14 166.993 17.008 167.59 18.128C168.187 19.248 168.486 20.5267 168.486 21.964C168.486 22.3 168.449 22.72 168.374 23.224H155.858ZM161.458 16.504C159.927 16.504 158.658 16.952 157.65 17.848C156.661 18.744 156.073 19.9293 155.886 21.404H166.442C166.293 19.836 165.77 18.632 164.874 17.792C163.997 16.9333 162.858 16.504 161.458 16.504Z" fill="#94A3B8"/>
<path d="M183.727 30H180.115V10.4H183.223L194.171 23.756V10.4H197.811V30H194.787L183.727 16.476V30ZM210.03 30.308C208.444 30.308 207.016 29.9627 205.746 29.272C204.477 28.5813 203.478 27.6293 202.75 26.416C202.041 25.2027 201.686 23.84 201.686 22.328C201.686 20.816 202.041 19.4533 202.75 18.24C203.478 17.0267 204.477 16.0747 205.746 15.384C207.016 14.6933 208.444 14.348 210.03 14.348C211.636 14.348 213.073 14.6933 214.342 15.384C215.612 16.056 216.601 16.9987 217.31 18.212C218.038 19.4253 218.402 20.788 218.402 22.3C218.402 23.8307 218.038 25.2027 217.31 26.416C216.601 27.6293 215.612 28.5813 214.342 29.272C213.073 29.9627 211.636 30.308 210.03 30.308ZM210.058 27.172C211.477 27.172 212.634 26.724 213.53 25.828C214.426 24.932 214.874 23.7653 214.874 22.328C214.874 20.872 214.426 19.7053 213.53 18.828C212.634 17.9507 211.468 17.512 210.03 17.512C208.612 17.512 207.445 17.9507 206.53 18.828C205.634 19.7053 205.186 20.8627 205.186 22.3C205.186 23.756 205.644 24.932 206.558 25.828C207.473 26.724 208.64 27.172 210.058 27.172ZM231.189 14.656H234.969L228.669 24.344V30H225.197V24.26L218.925 14.656H222.705L226.961 21.488L231.189 14.656ZM241.106 23.924V26.864H250.43V30H237.718V14.656H250.206V17.764H241.106V20.956H249.226V23.924H241.106ZM264.165 30L259.797 25.156H256.885V30H253.441V14.684H260.721C262.83 14.684 264.501 15.1413 265.733 16.056C266.965 16.9707 267.581 18.2307 267.581 19.836C267.581 21.068 267.226 22.1133 266.517 22.972C265.807 23.8307 264.818 24.4467 263.549 24.82L268.169 30H264.165ZM256.885 17.792V22.02H260.749C261.794 22.02 262.615 21.8893 263.213 21.628C263.81 21.3667 264.109 20.8253 264.109 20.004C264.109 18.5293 262.998 17.792 260.777 17.792H256.885Z" fill="white"/>
<defs>
<filter id="filter0_d_407_42" x="0" y="0" width="49.1597" height="46.4199" filterUnits="userSpaceOnUse" color-interpolation-filters="sRGB">
<feFlood flood-opacity="0" result="BackgroundImageFix"/>
<feColorMatrix in="SourceAlpha" type="matrix" values="0 0 0 0 0 0 0 0 0 0 0 0 0 0 0 0 0 0 127 0" result="hardAlpha"/>
<feOffset dy="4"/>
<feGaussianBlur stdDeviation="2"/>
<feComposite in2="hardAlpha" operator="out"/>
<feColorMatrix type="matrix" values="0 0 0 0 0 0 0 0 0 0 0 0 0 0 0 0 0 0 0.25 0"/>
<feBlend mode="normal" in2="BackgroundImageFix" result="effect1_dropShadow_407_42"/>
<feBlend mode="normal" in="SourceGraphic" in2="effect1_dropShadow_407_42" result="shape"/>
</filter>
</defs>
</svg>
